<?xml version="1.0" encoding="utf-8"?>
<!-- Generator: Adobe Illustrator 27.5.0, SVG Export Plug-In . SVG Version: 6.00 Build 0)  -->
<svg version="1.1" id="_x5F__1_" xmlns="http://www.w3.org/2000/svg" xmlns:xlink="http://www.w3.org/1999/xlink" x="0px" y="0px"
	 viewBox="0 0 600 450" style="enable-background:new 0 0 600 450;" xml:space="preserve">
<rect id="BG" style="fill:#F5F5F5;" width="600" height="450"/>
<g id="Vinyl">
	<circle style="fill:#949494;" cx="250" cy="225" r="210"/>
	<g>
		<circle id="Shadow" style="fill:#80807F;" cx="250" cy="229" r="190"/>
		<circle style="fill:#2C2C2E;" cx="250" cy="225" r="190"/>
		<g>
			<path style="fill:#3D3D3F;" d="M372.124,79.458L250,225L127.876,79.458C144.687,65.337,163.973,54.068,185,46.414
				C205.279,39.031,227.168,35,250,35s44.721,4.031,65,11.414C336.026,54.068,355.313,65.337,372.124,79.458z M127.876,370.542
				c16.811,14.121,36.098,25.389,57.124,33.044C205.279,410.969,227.168,415,250,415s44.721-4.031,65-11.414
				c21.026-7.655,40.313-18.923,57.124-33.044L250,225L127.876,370.542z"/>
		</g>
		<g>
			<path style="fill:#535357;" d="M299.186,41.435L250,225L200.814,41.435C216.502,37.241,232.989,35,250,35
				S283.498,37.241,299.186,41.435z M250,225L250,225l-49.186,183.565C216.502,412.759,232.989,415,250,415
				s33.498-2.241,49.186-6.435L250,225L250,225z"/>
		</g>
		<path style="fill:#131114;" d="M250,383.167c-87.213,0-158.167-70.953-158.167-158.167c0-87.213,70.953-158.167,158.167-158.167
			c87.214,0,158.167,70.953,158.167,158.167C408.167,312.214,337.214,383.167,250,383.167z M250,69.834
			c-85.559,0-155.167,69.607-155.167,155.167c0,85.56,69.607,155.167,155.167,155.167c85.56,0,155.167-69.607,155.167-155.167
			C405.167,139.441,335.56,69.834,250,69.834z"/>
		<path style="fill:#131114;" d="M250,349.833c-68.833,0-124.834-56-124.834-124.833c0-68.833,56-124.834,124.834-124.834
			c68.833,0,124.833,56,124.833,124.834C374.833,293.833,318.833,349.833,250,349.833z M250,103.166
			c-67.179,0-121.833,54.654-121.833,121.834c0,67.179,54.654,121.833,121.833,121.833c67.179,0,121.833-54.654,121.833-121.833
			C371.833,157.821,317.179,103.166,250,103.166z"/>
		<circle style="fill:#131114;" cx="250" cy="225" r="90"/>
		<circle style="fill:#E5625B;" cx="250" cy="225" r="65"/>
		<path style="fill:#AF3832;" d="M250,232.5c-4.142,0-7.5-3.358-7.5-7.5v5c0,4.142,3.358,7.5,7.5,7.5c4.142,0,7.5-3.358,7.5-7.5v-5
			C257.5,229.142,254.142,232.5,250,232.5z"/>
	</g>
	<circle style="fill:#F5F5F5;" cx="250" cy="225" r="7.5"/>
</g>
<g id="Tone_arm" style="transform: rotate(0deg); transform-origin: 505px 95px; transition: transform 0.5s ease;">
	<circle style="fill:#2C2C2E;" cx="505" cy="95" r="50"/>
	
	<path style="fill:#949494;" d="M477.084,404.48l-16.681-15.936l-4.145,4.338l16.681,15.936c1.198,1.145,3.097,1.101,4.241-0.097
		l0,0C478.325,407.524,478.282,405.625,477.084,404.48z"/>
	<path style="fill:#949494;" d="M513.356,112.345l-16.705,0.22c0.017,1.396,1.823,158.891,0.996,181.954
		c-0.734,20.49-0.734,20.49-40.379,73.656l0,0c-1.31,1.758-0.947,4.245,0.811,5.556l7.031,5.241c1.757,1.31,4.243,0.947,5.553-0.81
		l0,0c41.155-55.193,42.762-57.347,43.681-83.045C515.185,271.648,513.432,118.064,513.356,112.345z"/>
	<path style="fill:#949494;" d="M513.737,98.013c11.036-31.153,21.961-62.354,26.076-74.123c0.912-2.608-0.464-5.46-3.072-6.371
		l-6.333-2.211c-2.606-0.91-5.455,0.46-6.366,3.065c-4.057,11.597-14.989,42.806-26.011,73.923L513.737,98.013z"/>
	<path style="fill:#535357;" d="M542.237,26.589c0,0-14.457-5.501-21.215-8.075c-2.631-1.002-5.563,0.368-6.493,3.025L503.653,52.57
		c-0.922,2.556,0.367,5.38,2.901,6.36l21.186,8.189c2.617,1.012,5.554-0.328,6.506-2.968l10.942-31.254
		C546.071,30.343,544.764,27.548,542.237,26.589z"/>
	<path style="fill:#C4C4C4;" d="M512.544,27.204l-4.824,13.764l30.514,11.795l4.875-13.925
		C534.224,35.457,522.392,30.954,512.544,27.204z"/>
	<circle style="fill:#C4C4C4;" cx="505" cy="95" r="25"/>
	<path style="fill:#949494;" d="M488.854,75.92c-3.41,2.889-6.033,6.674-7.509,10.994l17.388,17.547l0.005-0.005
		c1.962,1.904,4.783,2.927,7.831,2.411c3.695-0.626,6.74-3.593,7.298-7.299c0.27-1.792,0.133-3.715,0.133-3.715L488.854,75.92z"/>
	<path style="fill:#F5F5F5;" d="M511.456,88.738l0.005-0.005L485.71,62.747c-1.953-1.953-5.118-1.953-7.071,0l-5.657,5.657
		c-1.953,1.953-1.953,5.118,0,7.071l25.751,25.986l0.005-0.005c1.962,1.904,4.783,2.927,7.831,2.411
		c3.695-0.626,6.672-3.604,7.298-7.299C514.383,93.52,513.36,90.7,511.456,88.738z"/>
	<circle style="fill:#C4C4C4;" cx="532.211" cy="119.378" r="7.5"/>
	<path style="fill:#535357;" d="M469.661,384.859c-0.069,0.073-22.284,23.118-22.284,23.118c-1.572,1.591-4.146,1.567-5.703-0.041
		l-12.555-13.028c-1.502-1.562-1.489-4.036,0.036-5.572c0,0,21.909-22.657,21.988-22.729c5.045-5.098,13.256-5.161,18.365-0.135
		C474.627,371.509,474.698,379.74,469.661,384.859z"/>
</g>
<g id="Button_1_">
	<circle style="fill:#DBDBDB;" cx="50" cy="405" r="25"/>
	<circle style="fill:#949494;" cx="50" cy="400" r="25"/>
	<circle style="fill:#C4C4C4;" cx="50" cy="400" r="20"/>
	<circle style="fill:#949494;" cx="50" cy="390.167" r="5"/>
</g>
<g id="Button">
	<path style="fill:#DBDBDB;" d="M64.579,70h-30c-2.761,0-5-2.239-5-5V35c0-2.761,2.239-5,5-5h30c2.761,0,5,2.239,5,5v30
		C69.579,67.761,67.341,70,64.579,70z"/>
	<path style="fill:#949494;" d="M64.579,65h-30c-2.761,0-5-2.239-5-5V30c0-2.761,2.239-5,5-5h30c2.761,0,5,2.239,5,5v30
		C69.579,62.761,67.341,65,64.579,65z"/>
	<path style="fill:#C4C4C4;" d="M59.579,60h-20c-2.761,0-5-2.239-5-5V35c0-2.761,2.239-5,5-5h20c2.761,0,5,2.239,5,5v20
		C64.579,57.761,62.341,60,59.579,60z"/>
</g>
<g id="Pitch_control">
	<path style="fill:#949494;" d="M565.031,425h-30c-2.762,0-5-2.239-5-5V230c0-2.761,2.238-5,5-5h30c2.761,0,5,2.239,5,5v190
		C570.031,422.761,567.793,425,565.031,425z"/>
	<path style="fill:#80807F;" d="M565.031,225h-30c-2.762,0-5,2.239-5,5v3c0-2.761,2.238-5,5-5h30c2.761,0,5,2.239,5,5v-3
		C570.031,227.239,567.793,225,565.031,225z"/>
	<path style="fill:#80807F;" d="M560.031,310h-20c-2.762,0-5-2.239-5-5v-20c0-2.761,2.238-5,5-5h20c2.761,0,5,2.239,5,5v20
		C565.031,307.761,562.793,310,560.031,310z"/>
	<rect x="546.031" y="245" style="fill:#2C2C2E;" width="8" height="160"/>
	<path style="fill:#F5F5F5;" d="M560.031,300h-20c-2.762,0-5-2.239-5-5v-20c0-2.761,2.238-5,5-5h20c2.761,0,5,2.239,5,5v20
		C565.031,297.761,562.793,300,560.031,300z"/>
	<path style="fill:#DBDBDB;" d="M555.031,295h-10c-2.762,0-5-2.239-5-5v-10c0-2.761,2.238-5,5-5h10c2.761,0,5,2.239,5,5v10
		C560.031,292.761,557.793,295,555.031,295z"/>
</g>
</svg>
